<svg version="1.1" xmlns="http://www.w3.org/2000/svg" style="display: block;" viewBox="0 0 2048 1593" width="1152" height="896" preserveAspectRatio="none">
<path transform="translate(0,0)" fill="rgb(150,159,145)" d="M 1004.06 110.085 C 1386.91 92.8888 1711.16 389.421 1728.15 772.278 C 1745.14 1155.14 1448.43 1479.22 1065.56 1496.01 C 682.987 1512.78 359.2 1216.35 342.224 833.78 C 325.247 451.213 621.504 127.267 1004.06 110.085 z M 1066.54 1428.83 C 1413.03 1411.78 1680.12 1117.11 1663.14 770.61 C 1646.16 424.112 1351.54 156.965 1005.04 173.881 C 658.444 190.801 391.211 485.52 408.196 832.109 C 425.181 1178.7 719.949 1445.88 1066.54 1428.83 z"/>
<path transform="translate(0,0)" fill="rgb(137,136,121)" d="M 1015.3 162.871 C 1367.79 151.592 1662.72 428.15 1674.1 780.645 C 1685.49 1133.14 1409.02 1428.15 1056.53 1439.64 C 703.885 1451.13 408.725 1174.52 397.337 821.875 C 385.949 469.232 662.648 174.154 1015.3 162.871 z M 1066.54 1428.83 C 1413.03 1411.78 1680.12 1117.11 1663.14 770.61 C 1646.16 424.112 1351.54 156.965 1005.04 173.881 C 658.444 190.801 391.211 485.52 408.196 832.109 C 425.181 1178.7 719.949 1445.88 1066.54 1428.83 z"/>
<path transform="translate(0,0)" fill="rgb(137,136,121)" d="M 1018.71 334.063 C 1274.16 324.708 1488.83 524.219 1498.17 779.676 C 1507.52 1035.13 1308 1249.79 1052.54 1259.13 C 797.098 1268.46 582.453 1068.95 573.11 813.511 C 563.768 558.069 763.264 343.416 1018.71 334.063 z M 1061.54 1253.83 C 1313.86 1239.56 1506.92 1023.56 1492.89 771.227 C 1478.85 518.891 1263.04 325.633 1010.7 339.425 C 758.008 353.236 564.435 569.399 578.485 822.073 C 592.535 1074.75 808.881 1268.12 1061.54 1253.83 z"/>
<path transform="translate(0,0)" fill="rgb(137,136,121)" d="M 1012.06 400.823 C 1230.57 387.812 1418.28 554.352 1431.39 772.859 C 1444.5 991.367 1278.05 1179.15 1059.55 1192.36 C 840.906 1205.58 652.971 1039 639.853 820.348 C 626.735 601.7 793.405 413.841 1012.06 400.823 z M 1054.54 1187.75 C 1270.72 1177.31 1437.41 993.437 1426.67 777.269 C 1415.93 561.101 1231.83 394.661 1015.68 405.702 C 799.95 416.72 633.907 600.381 644.626 816.126 C 655.346 1031.87 838.776 1198.17 1054.54 1187.75 z"/>
<path transform="translate(0,0)" fill="rgb(137,136,121)" d="M 1020.91 468.735 C 1201.74 460.555 1355.03 600.364 1363.49 781.179 C 1371.94 961.995 1232.37 1115.5 1051.57 1124.23 C 870.373 1132.98 716.463 993.042 707.988 811.836 C 699.514 630.63 839.691 476.933 1020.91 468.735 z M 1052.54 1119.38 C 1230.86 1110.07 1367.84 957.916 1358.45 779.601 C 1349.05 601.286 1196.83 464.378 1018.52 473.859 C 840.33 483.334 703.531 635.426 712.923 813.623 C 722.315 991.82 874.343 1128.69 1052.54 1119.38 z"/>
<path transform="translate(0,0)" fill="rgb(137,136,121)" d="M 1023.38 533.194 C 1168.57 526.396 1291.88 638.369 1299.08 783.54 C 1306.27 928.711 1194.64 1052.33 1049.49 1059.93 C 903.772 1067.55 779.567 955.386 772.343 809.65 C 765.119 663.914 877.623 540.018 1023.38 533.194 z M 1051.49 1054.95 C 1194.38 1046.17 1303.01 923.055 1293.91 780.18 C 1284.81 637.305 1161.45 528.961 1018.59 538.386 C 876.199 547.78 768.28 670.662 777.349 813.077 C 786.419 955.491 909.054 1063.69 1051.49 1054.95 z"/>
<path transform="translate(0,0)" fill="rgb(71,68,55)" d="M 1028.73 602.414 C 1041.83 601.312 1060.23 604.398 1073.08 607.03 C 1085.52 609.836 1098.01 616.002 1093.42 631.028 C 1066.95 717.569 1103.34 814.963 1180.76 862.138 C 1188.1 866.907 1204.19 871.554 1209.32 878.324 C 1221.23 894.04 1194.59 926.212 1185.7 936.697 C 1160.19 966.798 1149.27 945.636 1128.63 926.884 C 1108.67 908.741 1082.56 896.871 1057.25 888.553 C 1006.48 875.008 956.99 878.951 909.993 902.808 C 894.228 911.385 879.376 932.018 863.3 909.949 C 851.978 894.405 842.42 873.738 839.046 854.691 C 835.03 832.015 859.919 831.582 875.118 826.364 C 904.569 816.254 930.235 799.016 951.353 776.138 C 978.123 747.481 995.887 711.594 1002.44 672.931 C 1005.92 653.062 1004.98 638.802 1004 618.851 C 1003.4 606.621 1018.29 603.366 1028.73 602.414 z M 1044.12 829.568 C 1062.56 824.681 1073.55 805.768 1068.66 787.329 C 1063.77 768.889 1044.85 757.907 1026.41 762.801 C 1007.98 767.694 997 786.602 1001.89 805.037 C 1006.78 823.472 1025.68 834.454 1044.12 829.568 z"/>
<path transform="translate(0,0)" fill="rgb(137,136,121)" d="M 514.709 480.245 C 516.583 480.246 518.488 480.265 520.343 480.561 C 529 481.94 600.507 524.402 605.011 531.205 C 606.769 533.862 606.569 537.878 605.92 540.838 C 603.82 550.417 595.961 562.561 587.692 567.855 C 587.103 567.803 586.514 567.747 585.929 567.663 C 585.64 567.622 585.352 567.574 585.063 567.534 C 575.935 566.272 502.289 522.028 497.453 515.026 C 495.818 512.658 495.878 509.753 496.443 507.043 C 498.438 497.48 506.411 485.342 514.709 480.245 z"/>
<path transform="translate(0,0)" fill="rgb(137,136,121)" d="M 1020.87 1295.14 C 1027.99 1294.81 1051.97 1292.86 1054.45 1298.39 C 1059.99 1310.75 1057.39 1342.32 1057.89 1356.57 C 1058.44 1372.41 1057.84 1383.43 1057.27 1398.77 C 1057.08 1403.78 1053.35 1406.56 1050.02 1409.05 C 1043.13 1409.38 1035.74 1410.21 1028.88 1409.65 C 1024.27 1409.27 1018.49 1407.89 1015.69 1403.86 C 1011.56 1397.93 1011.52 1313.04 1013.77 1302.87 C 1014.67 1298.84 1017.63 1297.24 1020.87 1295.14 z"/>
<path transform="translate(0,0)" fill="rgb(137,136,121)" d="M 1550.15 480.169 C 1552.38 480.212 1554.46 480.369 1556.59 481.113 C 1564.73 483.963 1569.31 495.683 1572.56 503.057 C 1574.15 506.651 1575.34 511.542 1573.58 515.3 C 1570.16 522.597 1498.8 563.264 1487.46 568.162 C 1486.27 567.951 1486.48 568.019 1485.09 567.601 C 1479.4 565.882 1474.69 560.209 1471.98 555.075 C 1468.2 547.913 1462.97 539.923 1465.48 531.714 C 1471.42 524.091 1539.09 484.94 1550.15 480.169 z"/>
<path transform="translate(0,0)" fill="rgb(137,136,121)" d="M 1484.13 1025.85 C 1497.94 1026.88 1549.79 1062.6 1565.56 1070.12 C 1584.76 1079.26 1569.27 1107.76 1555.1 1113.39 C 1541.2 1112.31 1480.34 1072.16 1465.89 1062.21 C 1458.42 1057.07 1476.4 1030.78 1484.13 1025.85 z"/>
<path transform="translate(0,0)" fill="rgb(137,136,121)" d="M 580.349 1026.99 C 582.91 1026.79 585.723 1026.42 588.222 1027.17 C 593.942 1028.88 598.498 1037 601.289 1041.93 C 604.159 1047 607.96 1054.95 605.868 1060.79 C 603.213 1068.2 533.376 1106.52 522.001 1112.73 C 513.081 1113.99 511.414 1112.49 506.195 1105.34 C 483.325 1074 504.92 1070.6 530.127 1056.24 L 580.349 1026.99 z"/>
<path transform="translate(0,0)" fill="rgb(137,136,121)" d="M 1027.47 190.446 C 1037.68 190.191 1057.84 187.132 1057.84 202.146 C 1057.84 230.613 1058.2 259.173 1058.06 287.653 C 1058.01 298.674 1053.62 301.174 1043.91 301.61 C 1030.96 301.969 1013.79 305.217 1013.32 287.506 C 1012.55 258.577 1012.2 229.152 1013.6 200.243 C 1014 192.052 1021.18 191.071 1027.47 190.446 z"/>
<path transform="translate(0,0)" fill="rgb(137,136,121)" d="M 1091.14 262.263 C 1103.2 260.727 1130.76 266.134 1142.98 268.595 C 1231.85 286.546 1314.78 326.55 1384.15 384.93 C 1393.44 392.573 1402.45 400.56 1411.15 408.875 C 1420.88 418.285 1473.34 472.601 1474.4 483.971 C 1472.95 483.794 1470.75 483.715 1469.76 482.439 C 1432.59 434.544 1393.48 394.736 1343.15 359.875 C 1283.8 318.279 1216.61 289.187 1145.67 274.367 C 1128.93 270.811 1114.28 268.946 1097.41 266.687 C 1093.34 266.141 1092.96 264.976 1091.14 262.263 z"/>
<path transform="translate(0,0)" fill="rgb(137,136,121)" d="M 969.632 262.371 C 972.741 262.05 975.447 261.364 978.127 262.829 L 978.427 264.189 C 974.338 268.458 964.39 268.053 958.26 268.897 C 813.374 288.85 691.866 365.953 603.607 480.401 L 600.724 483.723 C 599.924 483.796 599.125 483.869 598.325 483.942 L 597.942 482.876 C 599.004 478.474 601.012 475.121 603.767 471.567 C 692.693 355.548 824.539 280.16 969.632 262.371 z"/>
<path transform="translate(0,0)" fill="rgb(137,136,121)" d="M 538.292 583.353 C 544.855 586.287 533.277 607.641 530.967 613.972 C 513.145 663.795 502.546 715.912 499.49 768.738 C 497.026 816.059 500.856 863.498 510.88 909.811 C 515.409 930.22 521.114 950.351 527.967 970.102 C 530.848 978.154 542.183 1003.74 540.91 1010.15 C 540.655 1010.01 540.39 1009.89 540.145 1009.74 C 528.359 1002.38 507.466 918.353 504.114 901.615 C 486.183 811.518 491.601 718.331 519.854 630.919 C 522.989 621.08 532.904 591.451 538.292 583.353 z"/>
<path transform="translate(0,0)" fill="rgb(137,136,121)" d="M 597.112 1109.57 C 603.084 1110.42 614.838 1127.76 619.678 1133.66 C 645.426 1164.41 674.388 1192.32 706.07 1216.92 C 766.234 1264 835.685 1297.82 909.856 1316.13 C 931.852 1321.41 954.675 1324.93 976.958 1328.58 C 978.736 1328.87 978.901 1331.18 979.353 1332.78 C 966.551 1332.58 938.188 1327.23 925.621 1324.65 C 824.692 1303.15 731.89 1253.58 657.906 1181.65 C 647.959 1172.02 597.286 1119.98 597.112 1109.57 z"/>
<path transform="translate(0,0)" fill="rgb(137,136,121)" d="M 1471.69 1108.63 C 1473.52 1110.4 1472.85 1109.32 1473.32 1112.19 C 1471.11 1118.25 1455.66 1135.91 1450.9 1141.65 C 1366.81 1243.15 1227.78 1321.61 1094.9 1332.27 L 1093.08 1331.31 C 1093.55 1327.61 1102.98 1326.79 1106.55 1326.33 C 1148.23 1321.08 1187.78 1310.91 1226.98 1295.66 C 1302.42 1266.08 1370.49 1220.38 1426.45 1161.77 C 1442.98 1144.23 1456.38 1124.94 1470.95 1109.41 L 1471.69 1108.63 z"/>
<path transform="translate(0,0)" fill="rgb(137,136,121)" d="M 1530.25 583.364 L 1532.7 584.075 C 1535.58 586.602 1537.6 591.986 1539.05 595.607 C 1592.33 728.936 1590.28 878 1533.35 1009.81 L 1530.59 1008.5 C 1529.98 1003.38 1540.01 980.042 1542.44 973.292 C 1577.85 875.217 1581.77 763.866 1555.82 663.136 C 1553.18 652.603 1550.12 642.179 1546.65 631.887 C 1543.86 623.6 1530.18 588.81 1530.25 583.364 z"/>
</svg>